<?xml version="1.0" standalone="no"?>
<!DOCTYPE svg PUBLIC "-//W3C//DTD SVG 20010904//EN"
 "http://www.w3.org/TR/2001/REC-SVG-20010904/DTD/svg10.dtd">
<svg version="1.0" xmlns="http://www.w3.org/2000/svg"
 width="260.000000pt" height="260.000000pt" viewBox="0 0 260.000000 260.000000"
 preserveAspectRatio="xMidYMid meet">
<metadata>
Created by potrace 1.11, written by Peter Selinger 2001-2013
</metadata>
<g transform="translate(0.000000,260.000000) scale(0.100000,-0.100000)"
fill="#000000" stroke="none">
<path d="M723 2150 c-115 -52 -244 -169 -327 -297 -106 -164 -155 -339 -156
-553 0 -134 8 -194 36 -278 82 -247 236 -438 431 -536 63 -31 98 -33 113 -7 9
17 0 28 -67 82 -173 139 -293 326 -340 529 -21 93 -26 318 -8 405 49 246 178
455 355 575 62 42 77 64 59 86 -16 19 -46 17 -96 -6z"/>
<path d="M1782 2158 c-22 -22 -12 -37 61 -91 165 -124 270 -278 327 -479 29
-99 35 -154 34 -283 0 -119 -6 -167 -31 -260 -47 -178 -183 -383 -318 -480
-75 -54 -85 -66 -74 -86 38 -72 285 90 406 266 65 95 138 268 159 375 3 19 7
92 9 162 4 207 -26 340 -115 506 -73 135 -156 228 -278 311 -99 67 -154 85
-180 59z"/>
<path d="M1486 1784 c-9 -8 -16 -24 -16 -35 0 -24 -1 -24 -62 7 -132 67 -295
26 -376 -95 -40 -62 -55 -112 -55 -191 1 -150 80 -228 273 -269 124 -27 174
-45 207 -78 18 -19 34 -44 35 -56 0 -12 2 -29 3 -37 3 -34 -19 -87 -48 -117
-40 -42 -85 -57 -153 -49 -121 13 -177 73 -191 207 -7 72 -32 109 -72 109 -55
0 -59 -16 -59 -229 1 -176 2 -195 19 -212 41 -41 109 -8 109 51 l0 31 45 -31
c69 -47 126 -63 203 -58 116 9 209 70 262 174 21 42 25 63 25 144 0 85 -3 100
-27 140 -47 79 -95 106 -262 149 -142 37 -183 55 -202 93 -20 38 -20 107 0
145 37 73 135 102 218 65 61 -27 87 -71 97 -167 10 -83 24 -104 72 -105 52 0
57 18 57 218 0 175 -1 183 -21 197 -28 19 -61 19 -81 -1z"/>
</g>
</svg>
